<?xml version="1.0" encoding="UTF-8"?>
<svg  width="200px" height="50px" class="logo-svg" id="Livello_1" data-name="Livello 1" xmlns="http://www.w3.org/2000/svg" viewBox="0 0 640.34 650.27">
  <path d="M98.95,491.92c0-25.36,.21-48.96-.15-72.55-.09-5.6-1.57-11.32-3.25-16.72-13.32-42.61-15.56-85.78-5.39-129.19,3.21-13.68,8.37-27.27,14.85-39.76,21.65-41.73,74.42-53.48,111.29-24.04,20.98,16.76,39.9,36.15,59.34,54.78,47.73,45.73,95.22,91.71,142.83,137.58,9.43,9.08,19.35,17.24,33,19.25,28.01,4.12,48.74-13.28,48.8-41.63,.16-73.35,.07-146.69,.18-220.04,.02-16.96,.45-33.92,.62-50.88,.09-9.31,2.65-17.24,11.58-21.82,9.55-4.9,19.11-3.45,26.66,3.02,9.97,8.54,19.4,17.99,27.71,28.16,42.37,51.84,67.2,111.23,72.2,178.03,7.9,105.46-25.24,196.71-101.99,269.57-67.41,64-149.75,90.26-242.26,83.59-28.15-2.03-55.71-8.2-81.96-19.15-20.3-8.46-30.63-23.2-30.53-45.78,.34-76.59,.17-153.18,.21-229.77,0-3.49-.09-7.02,.35-10.46,1.23-9.58,5.96-16.86,15-20.82,9.13-4.01,17.74-2.42,25.2,3.79,6.31,5.25,12.1,11.15,18.03,16.86,42.04,40.49,84.02,81.05,126.1,121.5,21.25,20.43,45.4,35.88,74.93,41.16,57.43,10.27,104.21-13.24,130.73-65.28,13.31-26.11,20.26-53.95,23.72-82.92,5.43-45.41,1.21-89.6-15.61-132.3-8.92-22.64-21.15-43.45-36.04-62.69-.54-.7-1.33-1.21-2.74-2.46-.25,2.03-.5,3.15-.51,4.27-.04,3.49,.19,7,0,10.48-2.02,35.8,2.93,70.6,10.49,105.71,10.33,48,5.29,95.55-18.23,139.55-29.18,54.57-91.64,51.57-123.72,27.71-18.9-14.05-35.46-31.33-52.59-47.67-51.63-49.23-102.92-98.82-154.63-147.96-5.83-5.54-12.99-10.32-20.38-13.46-20.71-8.8-39.8,2.92-42.29,25.36-.82,7.42-1.22,14.93-1.22,22.39-.06,85.57,0,171.14-.06,256.72,0,4.43-.18,9.1-1.54,13.24-3.99,12.15-16.75,17.81-28.36,12.51-4.42-2.02-8.69-5.1-12.05-8.63C48.28,509.52,15.07,449.3,4.52,378.66-14.28,252.73,25.42,148.01,125.58,68.78,205.78,5.34,297.17-13.73,396.92,9.57c11.55,2.7,23.08,6.76,33.67,12.07,17.79,8.92,27.56,23.41,27.52,44.31-.14,85.07,.15,170.15,.22,255.22,0,3.72-.06,7.57-.98,11.13-5.02,19.4-27.4,25.34-42.54,10.89-25.99-24.8-51.49-50.1-77.26-75.12-30.42-29.54-61.71-58.23-91.17-88.7-45.44-47-118.1-41.16-159.07,2.58-18.02,19.24-28.83,42.57-35.38,67.59-21.36,81.58-12.13,158.63,36.24,229.31,2.97,4.34,6.7,8.16,10.78,13.07ZM262.82,134.16c-.02,.97-.05,1.93-.07,2.9,51.11,49.41,102.22,98.81,153.89,148.77,0-4.64,0-8.25,0-11.86,.07-35.64-.11-71.29,.42-106.93,.11-7.51-2.42-11.99-8.46-15.77-31.06-19.47-65.03-27.46-101.29-24.66-14.93,1.15-29.66,4.96-44.49,7.56Zm153.8-27.85c0-7.03,.02-12.48,0-17.94-.1-28.33-.95-29.42-28.75-37.03-.24-.07-.48-.12-.73-.18-83.93-21.11-159.99-4.35-228.7,47.61-2.02,1.53-3.77,3.43-7.09,6.48,4.38-.21,6.58-.56,8.74-.38,15.33,1.26,30.79,1.82,45.92,4.36,6.1,1.02,10.55,.76,15.96-1.93,41.27-20.58,84.77-28.39,130.63-21.83,22.09,3.16,43.21,9.42,64.03,20.83Zm71.02,445.36c-.26-.68-.53-1.35-.79-2.02-20.42,2.76-40.52,1.19-60.57-2.92-4.9-1-10.92-.14-15.59,1.83-53.03,22.38-106.81,23.83-161.35,6.5-8.19-2.6-16.15-5.96-24.91-9.23,0,6.74,0,12.69,0,18.63-.03,25.99-.12,26.34,25.47,33.35,71.35,19.54,139.64,11.86,204.3-24.44,11.56-6.49,22.31-14.43,33.43-21.7ZM224.29,388.8c0,4.96,0,7.67,0,10.37,.03,26.43,1.01,52.91-.3,79.28-.66,13.21,4.36,19.78,15.26,25.33,33.78,17.19,69.51,22.11,106.77,18.56,6.27-.6,12.47-2.05,18.15-3.01-46.33-43.24-92.26-86.1-139.87-130.53Z"/>
</svg>